<?xml version="1.0" encoding="UTF-8"?>
<svg width="135px" height="27px" viewBox="0 0 135 27" version="1.1" xmlns="http://www.w3.org/2000/svg" xmlns:xlink="http://www.w3.org/1999/xlink">
    <!-- Generator: Sketch 53.1 (72631) - https://sketchapp.com -->
    <title>/commons</title>
    <desc>Created with Sketch.</desc>
    <g id="Page-1" stroke="none" stroke-width="1" fill="none" fill-rule="evenodd">
        <g id="Desktop-HD" transform="translate(-75.000000, -19.000000)" fill="#05AF71" fill-rule="nonzero">
            <g id="subnav" transform="translate(60.000000, 0.000000)">
                <g id="subnav-/-group" transform="translate(0.000000, 15.000000)">
                    <path d="M16.0400391,30.4091797 L15,30.4091797 L22.4707031,4.86230469 L23.5107422,4.86230469 L16.0400391,30.4091797 Z M43.359375,15.3652344 L42.2314453,15.3652344 C41.7773438,13.1826172 39.8876953,11.5566406 37.265625,11.5566406 C33.8525391,11.5566406 31.6845703,14.2080078 31.6845703,18.3828125 C31.6845703,22.5869141 33.8525391,25.2089844 37.265625,25.2089844 C39.8583984,25.2089844 41.7480469,23.7148438 42.2167969,21.5322266 L43.3447266,21.5322266 C42.890625,24.3007812 40.5029297,26.234375 37.265625,26.234375 C33.1640625,26.234375 30.5419922,23.2314453 30.5419922,18.3828125 C30.5419922,13.578125 33.1787109,10.53125 37.2509766,10.53125 C40.546875,10.53125 42.9052734,12.640625 43.359375,15.3652344 Z M51.8847656,26.234375 C47.8417969,26.234375 45.1025391,23.2167969 45.1025391,18.3828125 C45.1025391,13.5488281 47.8417969,10.53125 51.8847656,10.53125 C55.9277344,10.53125 58.6816406,13.5488281 58.6816406,18.3828125 C58.6816406,23.2167969 55.9277344,26.234375 51.8847656,26.234375 Z M51.8847656,25.2089844 C55.2685547,25.2089844 57.5390625,22.6015625 57.5390625,18.3828125 C57.5390625,14.1494141 55.2685547,11.5566406 51.8847656,11.5566406 C48.5009766,11.5566406 46.2451172,14.1494141 46.2451172,18.3828125 C46.2451172,22.6162109 48.5009766,25.2089844 51.8847656,25.2089844 Z M61.2890625,26 L61.2890625,10.765625 L62.3583984,10.765625 L62.3583984,14.0761719 L62.3876953,14.0761719 C62.9589844,12.0546875 64.5849609,10.53125 66.9873047,10.53125 C69.3896484,10.53125 71.1035156,12.1279297 71.5576172,14.1494141 L71.6015625,14.1494141 C72.1289062,12.1865234 73.9453125,10.53125 76.4355469,10.53125 C79.3652344,10.53125 81.3134766,12.5527344 81.3134766,15.7167969 L81.3134766,26 L80.1708984,26 L80.1708984,15.9804688 C80.1708984,13.2412109 78.6621094,11.5566406 76.171875,11.5566406 C73.6083984,11.5566406 71.8652344,13.5927734 71.8652344,16.5224609 L71.8652344,26 L70.7373047,26 L70.7373047,15.9365234 C70.7373047,13.2998047 69.0820312,11.5566406 66.7529297,11.5566406 C64.2041016,11.5566406 62.4316406,13.6660156 62.4316406,16.9033203 L62.4316406,26 L61.2890625,26 Z M84.5800781,26 L84.5800781,10.765625 L85.6494141,10.765625 L85.6494141,14.0761719 L85.6787109,14.0761719 C86.25,12.0546875 87.8759766,10.53125 90.2783203,10.53125 C92.6806641,10.53125 94.3945312,12.1279297 94.8486328,14.1494141 L94.8925781,14.1494141 C95.4199219,12.1865234 97.2363281,10.53125 99.7265625,10.53125 C102.65625,10.53125 104.604492,12.5527344 104.604492,15.7167969 L104.604492,26 L103.461914,26 L103.461914,15.9804688 C103.461914,13.2412109 101.953125,11.5566406 99.4628906,11.5566406 C96.8994141,11.5566406 95.15625,13.5927734 95.15625,16.5224609 L95.15625,26 L94.0283203,26 L94.0283203,15.9365234 C94.0283203,13.2998047 92.3730469,11.5566406 90.0439453,11.5566406 C87.4951172,11.5566406 85.7226562,13.6660156 85.7226562,16.9033203 L85.7226562,26 L84.5800781,26 Z M113.891602,26.234375 C109.848633,26.234375 107.109375,23.2167969 107.109375,18.3828125 C107.109375,13.5488281 109.848633,10.53125 113.891602,10.53125 C117.93457,10.53125 120.688477,13.5488281 120.688477,18.3828125 C120.688477,23.2167969 117.93457,26.234375 113.891602,26.234375 Z M113.891602,25.2089844 C117.275391,25.2089844 119.545898,22.6015625 119.545898,18.3828125 C119.545898,14.1494141 117.275391,11.5566406 113.891602,11.5566406 C110.507812,11.5566406 108.251953,14.1494141 108.251953,18.3828125 C108.251953,22.6162109 110.507812,25.2089844 113.891602,25.2089844 Z M123.295898,26 L123.295898,10.765625 L124.365234,10.765625 L124.365234,14.0761719 L124.394531,14.0761719 C125.083008,11.9814453 127.075195,10.53125 129.667969,10.53125 C133.022461,10.53125 135.234375,12.6992188 135.234375,16.1269531 L135.234375,26 L134.091797,26 L134.091797,16.2734375 C134.091797,13.3291016 132.231445,11.5566406 129.404297,11.5566406 C126.459961,11.5566406 124.438477,13.7392578 124.438477,16.9033203 L124.438477,26 L123.295898,26 Z M138.164062,14.6621094 C138.164062,12.2597656 140.332031,10.53125 143.364258,10.53125 C146.44043,10.53125 148.549805,12.3037109 148.828125,15.1308594 L147.729492,15.1308594 C147.421875,12.875 145.78125,11.5126953 143.349609,11.5126953 C140.991211,11.5126953 139.277344,12.8164062 139.277344,14.6181641 C139.277344,16.0976562 140.302734,16.9472656 142.749023,17.5185547 L144.858398,18.0166016 C147.890625,18.734375 149.077148,19.8476562 149.077148,21.9863281 C149.077148,24.4765625 146.762695,26.234375 143.481445,26.234375 C140.288086,26.234375 137.900391,24.359375 137.666016,21.7080078 L138.793945,21.7080078 C139.072266,23.8173828 140.961914,25.2529297 143.510742,25.2529297 C146.118164,25.2529297 147.93457,23.9345703 147.93457,22.0595703 C147.93457,20.4482422 146.967773,19.5986328 144.521484,19.0126953 L142.324219,18.5 C139.467773,17.8261719 138.164062,16.6103516 138.164062,14.6621094 Z" id="/commons"></path>
                </g>
            </g>
        </g>
    </g>
</svg>