<?xml version="1.0" encoding="UTF-8"?>
<svg width="29px" height="30px" viewBox="0 0 29 30" version="1.1" xmlns="http://www.w3.org/2000/svg" xmlns:xlink="http://www.w3.org/1999/xlink">
    <!-- Generator: Sketch 53.1 (72631) - https://sketchapp.com -->
    <title>J.</title>
    <desc>Created with Sketch.</desc>
    <g id="Branding" stroke="none" stroke-width="1" fill="none" fill-rule="evenodd">
        <g id="Desktop-HD" transform="translate(-20.000000, -17.000000)" fill="#FFFFFF">
            <g id="nav">
                <g id="logo-/-J.Crew" transform="translate(10.000000, 10.000000)">
                    <path d="M35.9592765,37 C35.1425029,36.1670594 34.3257293,35.3337716 33.5600041,34.4487613 C34.3257293,33.5115079 35.0914546,32.626324 35.9592765,31.7930363 C36.8270984,32.5740808 37.5928236,33.5113343 38.3075005,34.3965181 C37.5417753,35.2818755 36.7760501,36.1670594 35.9592765,37 Z M11.4958868,33.8640193 C11.0915839,33.4516278 10.8086058,33.2044706 10.6467826,32.2557618 C10.4851295,31.3900173 10.2023216,29.9468205 10.1213249,29.6583547 C10.1213249,29.6583547 10,29.1223846 10,28.9573238 C10,28.4213537 10.3638046,28.3800451 10.5254577,28.3800451 C11.0105871,28.3800451 11.1722402,28.9573238 11.536215,29.7821069 C13.0317614,33.3278756 15.2954154,35.0595382 18.4485017,35.0595382 C23.8650719,35.0595382 25.2392934,29.6996633 25.2392934,24.4631934 L25.2392934,11.9612735 C25.2392934,10.8068896 25.2392934,8.29175254 21.7629008,7.96197817 C21.4395946,7.92066959 20.914137,7.87953457 20.914137,7.50845162 C20.914137,7.13719511 21.3182697,7.0960601 21.5205914,7.0960601 C22.3288569,7.0960601 26.6626915,7.38469945 27.5924521,7.38469945 C28.6838658,7.38469945 30.4623903,7.26094728 30.9070214,7.26094728 C31.270826,7.26094728 31.3919807,7.38469945 31.3919807,7.63203023 C31.3919807,7.87953457 30.987848,7.96215173 30.826365,8.00328674 C29.8561061,8.20930894 28.8051907,8.33306111 28.6030393,9.40517495 C28.401058,10.2297844 28.3603894,11.0543939 28.3202314,16.2495552 L28.3202314,23.5563139 C28.3202314,33.245432 23.1056426,36.4204649 18.4975081,36.4204649 C15.6273998,36.4204649 12.9914332,35.3894861 11.4958868,33.8640193 Z" id="J."></path>
                </g>
            </g>
        </g>
    </g>
</svg>